<?xml version="1.0" standalone="no"?>
        <!DOCTYPE svg PUBLIC "-//W3C//DTD SVG 1.1//EN" 
        "http://www.w3.org/Graphics/SVG/1.1/DTD/svg11.dtd"> <svg xmlns="http://www.w3.org/2000/svg" xmlns:xlink="http://www.w3.org/1999/xlink" width="200" zoomAndPan="magnify" viewBox="0 0 30 30.000001" height="200" preserveAspectRatio="xMidYMid meet" version="1.0" id="IconChangeColor"><defs><clipPath id="id1"><path d="M 6.101562 2.902344 L 22.070312 2.902344 L 22.070312 26.128906 L 6.101562 26.128906 Z M 6.101562 2.902344 " clip-rule="nonzero" id="mainIconPathAttribute" stroke-width="0" stroke="#ffffff" fill="#ffffff" filter="url(#shadow)"></path></clipPath></defs><g clip-path="url(#id1)"><path fill="#ffffff" d="M 10.894531 16.101562 L 21 16.101562 C 21.296875 16.101562 21.535156 15.863281 21.535156 15.570312 L 21.535156 12.933594 C 21.535156 12.640625 21.296875 12.40625 21 12.40625 L 10.894531 12.40625 L 10.894531 7.125 L 21.535156 7.125 C 21.828125 7.125 22.066406 6.890625 22.066406 6.597656 L 22.066406 3.429688 C 22.066406 3.140625 21.828125 2.902344 21.535156 2.902344 L 6.636719 2.902344 C 6.34375 2.902344 6.105469 3.140625 6.105469 3.429688 L 6.105469 25.601562 C 6.105469 25.890625 6.34375 26.128906 6.636719 26.128906 L 21.535156 26.128906 C 21.828125 26.128906 22.066406 25.890625 22.066406 25.601562 L 22.066406 22.433594 C 22.066406 22.144531 21.828125 21.90625 21.535156 21.90625 L 10.894531 21.90625 Z M 10.894531 16.101562 " fill-opacity="1" fill-rule="nonzero" id="mainIconPathAttribute" stroke="#ffffff"></path></g><filter id="shadow"><feDropShadow id="shadowValue" stdDeviation="0" dx="-1.5" dy="-1.5" flood-color="black"></feDropShadow></filter><filter id="shadow"><feDropShadow id="shadowValue" stdDeviation=".5" dx="0" dy="0" flood-color="black"></feDropShadow></filter><filter id="shadow"><feDropShadow id="shadowValue" stdDeviation=".5" dx="0" dy="0" flood-color="black"></feDropShadow></filter></svg> 